<svg width="34" height="30" viewBox="0 0 34 30" fill="none" xmlns="http://www.w3.org/2000/svg">
<path d="M17 27.2119C22.9521 27.2119 27.8823 22.2817 27.8823 16.3296C27.8823 10.3774 22.9409 5.44727 16.9888 5.44727C11.0366 5.44727 6.10645 10.3774 6.10645 16.3296C6.10645 22.2817 11.0479 27.2119 17 27.2119ZM16.8989 12.5112C16.0903 12.5112 15.439 11.8486 15.439 11.04C15.439 10.209 16.0903 9.56885 16.8989 9.56885C17.7188 9.56885 18.3589 10.209 18.3589 11.04C18.3589 11.8486 17.7188 12.5112 16.8989 12.5112ZM15.0571 22.3716C14.5854 22.3716 14.2261 22.0347 14.2261 21.5518C14.2261 21.1138 14.5854 20.7544 15.0571 20.7544H16.3936V15.9028H15.248C14.7876 15.9028 14.417 15.5547 14.417 15.083C14.417 14.645 14.7876 14.2856 15.248 14.2856H17.3257C17.9097 14.2856 18.2129 14.7012 18.2129 15.3188V20.7544H19.5269C19.9873 20.7544 20.3579 21.1138 20.3579 21.5518C20.3579 22.0347 19.9873 22.3716 19.5269 22.3716H15.0571Z" fill="#999999"/>
</svg>
